<?xml version="1.0" encoding="UTF-8" standalone="no"?>
<!-- Created with Inkscape (http://www.inkscape.org/) -->

<svg
   xmlns:dc="http://purl.org/dc/elements/1.1/"
   xmlns:cc="http://creativecommons.org/ns#"
   xmlns:rdf="http://www.w3.org/1999/02/22-rdf-syntax-ns#"
   xmlns:svg="http://www.w3.org/2000/svg"
   xmlns="http://www.w3.org/2000/svg"
   xmlns:sodipodi="http://sodipodi.sourceforge.net/DTD/sodipodi-0.dtd"
   xmlns:inkscape="http://www.inkscape.org/namespaces/inkscape"
   width="132.17307"
   height="61.791328"
   viewBox="0 0 34.97079 16.348955"
   version="1.1"
   id="svg17453"
   inkscape:version="0.92.0 r15299"
   sodipodi:docname="sgc.svg">
  <defs
     id="defs17447">
    <clipPath
       id="clipPath9321"
       clipPathUnits="userSpaceOnUse">
      <path
         inkscape:connector-curvature="0"
         id="path9319"
         d="m 317.56,36.169 h 98.381 V 81.762 H 317.56 Z" />
    </clipPath>
    <clipPath
       id="clipPath9275"
       clipPathUnits="userSpaceOnUse">
      <path
         inkscape:connector-curvature="0"
         id="path9273"
         d="M 314.8,31.761 H 422.03 V 85.08 H 314.8 Z" />
    </clipPath>
    <clipPath
       id="clipPath9259"
       clipPathUnits="userSpaceOnUse">
      <path
         inkscape:connector-curvature="0"
         id="path9257"
         d="m 317.56,36.169 h 98.381 V 81.762 H 317.56 Z" />
    </clipPath>
    <clipPath
       id="clipPath9141"
       clipPathUnits="userSpaceOnUse">
      <path
         inkscape:connector-curvature="0"
         id="path9139"
         d="M 314.8,31.761 H 422.03 V 85.08 H 314.8 Z" />
    </clipPath>
    <clipPath
       id="clipPath9113"
       clipPathUnits="userSpaceOnUse">
      <path
         inkscape:connector-curvature="0"
         id="path9111"
         d="m 317.56,36.169 h 98.381 V 81.762 H 317.56 Z" />
    </clipPath>
  </defs>
  <sodipodi:namedview
     id="base"
     pagecolor="#ffffff"
     bordercolor="#666666"
     borderopacity="1.0"
     inkscape:pageopacity="0.0"
     inkscape:pageshadow="2"
     inkscape:zoom="6.1140601"
     inkscape:cx="65.586532"
     inkscape:cy="30.395666"
     inkscape:document-units="mm"
     inkscape:current-layer="layer1"
     showgrid="false"
     fit-margin-top="0"
     fit-margin-left="0"
     fit-margin-right="0"
     fit-margin-bottom="0"
     units="px"
     inkscape:window-width="1280"
     inkscape:window-height="744"
     inkscape:window-x="-4"
     inkscape:window-y="-4"
     inkscape:window-maximized="1" />
  <metadata
     id="metadata17450">
    <rdf:RDF>
      <cc:Work
         rdf:about="">
        <dc:format>image/svg+xml</dc:format>
        <dc:type
           rdf:resource="http://purl.org/dc/dcmitype/StillImage" />
        <dc:title></dc:title>
      </cc:Work>
    </rdf:RDF>
  </metadata>
  <g
     inkscape:label="Layer 1"
     inkscape:groupmode="layer"
     id="layer1"
     transform="translate(-96.795707,-189.66347)">
    <g
       id="g17869"
       transform="translate(0.13229221,-0.13229277)">
      <g
         transform="matrix(0.35277777,0,0,-0.35277777,-15.232402,218.77187)"
         id="g9109"
         clip-path="url(#clipPath9113)">
        <g
           id="g9115"
           transform="translate(326.0417,51.9141)">
          <path
             d="M 0,0 C -3.491,2.328 -2.368,10.469 2.507,18.184 6.292,24.176 11.229,28.146 14.88,28.531 10.372,30.144 2.742,24.865 -2.854,16.009 -8.872,6.484 -10.258,-3.567 -5.948,-6.44 c 4.309,-2.875 12.682,2.517 18.7,12.042 0.771,1.218 1.464,2.446 2.08,3.666 C 9.984,1.859 3.416,-2.278 0,0"
             style="fill:#d1d3d4;fill-opacity:1;fill-rule:nonzero;stroke:none"
             id="path9117"
             inkscape:connector-curvature="0" />
        </g>
        <g
           id="g9119"
           transform="translate(326.0417,51.9141)">
          <path
             d="M 0,0 C -3.491,2.328 -2.368,10.469 2.507,18.184 6.292,24.176 11.229,28.146 14.88,28.531 10.372,30.144 2.742,24.865 -2.854,16.009 -8.872,6.484 -10.258,-3.567 -5.948,-6.44 c 4.309,-2.875 12.682,2.517 18.7,12.042 0.771,1.218 1.464,2.446 2.08,3.666 C 9.984,1.859 3.416,-2.278 0,0 Z"
             style="fill:none;stroke:#ffffff;stroke-width:0.055;stroke-linecap:butt;stroke-linejoin:miter;stroke-miterlimit:4;stroke-dasharray:none;stroke-opacity:1"
             id="path9121"
             inkscape:connector-curvature="0" />
        </g>
        <g
           id="g9123"
           transform="translate(326.9933,52.9419)">
          <path
             d="m 0,0 c -3.491,2.328 -2.368,10.47 2.506,18.184 3.787,5.992 8.722,9.962 12.374,10.348 -4.508,1.612 -12.138,-3.667 -17.734,-12.523 -6.019,-9.525 -7.404,-19.576 -3.094,-22.45 4.309,-2.874 12.682,2.518 18.7,12.043 0.77,1.218 1.463,2.446 2.079,3.665 C 9.983,1.859 3.416,-2.278 0,0"
             style="fill:#262262;fill-opacity:1;fill-rule:nonzero;stroke:none"
             id="path9125"
             inkscape:connector-curvature="0" />
        </g>
        <g
           id="g9127"
           transform="translate(343.0609,62.2948)">
          <path
             d="m 0,0 c 2.764,-3.156 -0.438,-10.725 -7.152,-16.905 -5.215,-4.8 -11.014,-7.349 -14.64,-6.771 3.933,-2.73 12.673,0.382 20.381,7.477 8.29,7.63 12.243,16.974 8.83,20.87 C 4.006,8.567 -5.481,5.54 -13.77,-2.09 -14.831,-3.066 -15.819,-4.071 -16.732,-5.088 -10.123,0.804 -2.706,3.089 0,0"
             style="fill:#d1d3d4;fill-opacity:1;fill-rule:nonzero;stroke:none"
             id="path9129"
             inkscape:connector-curvature="0" />
        </g>
        <g
           id="g9131"
           transform="translate(343.0609,62.2948)">
          <path
             d="m 0,0 c 2.764,-3.156 -0.438,-10.725 -7.152,-16.905 -5.215,-4.8 -11.014,-7.349 -14.64,-6.771 3.933,-2.73 12.673,0.382 20.381,7.477 8.29,7.63 12.243,16.974 8.83,20.87 C 4.006,8.567 -5.481,5.54 -13.77,-2.09 -14.831,-3.066 -15.819,-4.071 -16.732,-5.088 -10.123,0.804 -2.706,3.089 0,0 Z"
             style="fill:none;stroke:#ffffff;stroke-width:0.055;stroke-linecap:butt;stroke-linejoin:miter;stroke-miterlimit:4;stroke-dasharray:none;stroke-opacity:1"
             id="path9133"
             inkscape:connector-curvature="0" />
        </g>
      </g>
      <g
         transform="matrix(0.35277777,0,0,-0.35277777,-15.232402,218.77187)"
         id="g9137"
         clip-path="url(#clipPath9141)">
        <g
           id="g9143"
           transform="translate(344.0124,63.3226)">
          <path
             d="m 0,0 c 2.765,-3.156 -0.438,-10.725 -7.152,-16.905 -5.215,-4.8 -11.014,-7.349 -14.64,-6.771 3.933,-2.73 12.674,0.381 20.381,7.477 8.29,7.629 12.243,16.974 8.831,20.87 -3.414,3.896 -12.9,0.87 -21.19,-6.761 -1.061,-0.976 -2.05,-1.981 -2.962,-2.998 C -10.123,0.804 -2.705,3.089 0,0"
             style="fill:#ef4136;fill-opacity:1;fill-rule:nonzero;stroke:none"
             id="path9145"
             inkscape:connector-curvature="0" />
        </g>
        <g
           id="g9147"
           transform="translate(361.5832,77.0989)">
          <path
             d="m 0,0 c 0.073,0.944 -0.436,1.658 -1.44,1.658 -1.464,0 -1.621,-0.92 -1.621,-1.622 0,-0.629 0.278,-1.016 0.859,-1.234 0.484,-0.181 0.956,-0.363 1.44,-0.544 1.718,-0.642 2.032,-1.246 2.032,-2.444 0,-1.718 -1.076,-2.722 -2.819,-2.722 -0.895,0 -1.96,0.254 -2.48,1.439 -0.193,0.448 -0.181,1.174 -0.193,1.658 h 1.004 c -0.049,-1.343 0.205,-2.19 1.718,-2.19 1.016,0 1.73,0.52 1.73,1.585 0,1.379 -0.557,1.391 -1.476,1.742 -0.496,0.194 -1.295,0.448 -1.779,0.702 -0.859,0.435 -1.076,1.161 -1.076,2.057 0,1.5 1.052,2.48 2.528,2.48 1.658,0 2.674,-0.859 2.577,-2.565 z"
             style="fill:#bcbec0;fill-opacity:1;fill-rule:nonzero;stroke:none"
             id="path9149"
             inkscape:connector-curvature="0" />
        </g>
        <g
           id="g9151"
           transform="translate(368.8533,76.7601)">
          <path
             d="m 0,0 c -0.024,1.077 -0.375,1.996 -1.633,1.996 -1.743,0 -1.767,-2.48 -1.767,-3.678 -0.048,-1.234 -0.072,-3.98 1.767,-3.98 1.197,0 1.451,0.98 1.572,1.972 0.025,0.206 0.037,0.411 0.061,0.617 H 1.004 C 0.98,-3.255 0.98,-3.448 0.956,-3.63 0.895,-4.368 0.859,-4.924 0.424,-5.553 -0.048,-6.207 -0.677,-6.57 -1.549,-6.57 c -2.794,0 -2.891,2.698 -2.891,4.864 0,2.045 0.302,4.61 2.879,4.61 1.718,0 2.613,-1.283 2.565,-2.904 z"
             style="fill:#bcbec0;fill-opacity:1;fill-rule:nonzero;stroke:none"
             id="path9153"
             inkscape:connector-curvature="0" />
        </g>
        <g
           id="g9155"
           transform="translate(373.1144,75.3082)">
          <path
             d="M 0,0 H 1.585 C 2.057,0.012 3.364,0.085 3.339,1.67 3.315,3.23 2.093,3.267 1.416,3.267 H 0 Z M 0,-4.9 H -1.004 V 4.174 H 1.331 C 3.231,4.174 4.44,3.678 4.38,1.585 4.344,0.52 3.69,-0.242 2.637,-0.387 V -0.411 C 3.811,-0.52 4.101,-0.895 4.247,-2.105 4.283,-2.783 4.344,-3.448 4.44,-4.126 4.477,-4.295 4.549,-4.694 4.791,-4.694 V -4.9 H 3.617 c -0.217,0.581 -0.314,1.706 -0.314,2.311 0,0.907 -0.363,1.682 -1.549,1.682 H 0 Z"
             style="fill:#bcbec0;fill-opacity:1;fill-rule:nonzero;stroke:none"
             id="path9157"
             inkscape:connector-curvature="0" />
        </g>
        <g
           id="g9159"
           transform="translate(382.7789,78.7564)">
          <path
             d="m 0,0 h -0.024 l -1.198,-4.827 h 2.396 z m -0.653,0.726 h 1.33 L 3.23,-8.348 H 2.117 l -0.713,2.613 h -2.868 l -0.665,-2.613 h -1.114 z"
             style="fill:#bcbec0;fill-opacity:1;fill-rule:nonzero;stroke:none"
             id="path9161"
             inkscape:connector-curvature="0" />
        </g>
        <g
           id="g9163"
           transform="translate(392.5302,79.4822)">
          <path
             d="m 0,0 h 1.004 v -9.074 h -1.645 l -2.541,7.259 c -0.145,0.412 -0.254,0.823 -0.339,1.367 h -0.024 c 0.012,-0.459 0.024,-0.931 0.024,-1.391 V -9.074 H -4.525 V 0 h 1.634 l 2.576,-7.428 C -0.206,-7.707 -0.121,-7.997 0,-8.421 H 0.024 C 0.012,-8.094 0,-7.743 0,-7.404 Z"
             style="fill:#bcbec0;fill-opacity:1;fill-rule:nonzero;stroke:none"
             id="path9165"
             inkscape:connector-curvature="0" />
        </g>
        <g
           id="g9167"
           transform="translate(395.1597,79.4822)">
          <path
             d="M 0,0 H 5.698 V -0.907 H 3.352 V -9.074 H 2.347 v 8.167 H 0 Z"
             style="fill:#bcbec0;fill-opacity:1;fill-rule:nonzero;stroke:none"
             id="path9169"
             inkscape:connector-curvature="0" />
        </g>
        <g
           id="g9171"
           transform="translate(405.0632,78.7564)">
          <path
             d="m 0,0 c -1.549,0 -1.936,-1.621 -1.923,-3.642 0.012,-2.625 0.278,-4.017 1.947,-4.017 1.67,0 1.936,1.392 1.948,4.017 C 1.984,-1.621 1.597,0 0,0 m 0.048,0.907 c 2.65,0 2.977,-2.444 2.965,-4.525 -0.012,-2.516 -0.339,-4.948 -2.989,-4.948 -2.649,0 -2.964,2.432 -2.988,4.948 0,2.081 0.314,4.525 3.012,4.525"
             style="fill:#bcbec0;fill-opacity:1;fill-rule:nonzero;stroke:none"
             id="path9173"
             inkscape:connector-curvature="0" />
        </g>
        <g
           id="g9175"
           transform="translate(414.6327,79.4822)">
          <path
             d="m 0,0 h 1.004 v -9.074 h -1.645 l -2.541,7.259 c -0.145,0.412 -0.254,0.823 -0.339,1.367 h -0.024 c 0.013,-0.459 0.024,-0.931 0.024,-1.391 V -9.074 H -4.525 V 0 h 1.634 l 2.576,-7.428 C -0.205,-7.707 -0.121,-7.997 0,-8.421 H 0.024 C 0.012,-8.094 0,-7.743 0,-7.404 Z"
             style="fill:#bcbec0;fill-opacity:1;fill-rule:nonzero;stroke:none"
             id="path9177"
             inkscape:connector-curvature="0" />
        </g>
        <g
           id="g9179"
           transform="translate(363.4289,58.8949)">
          <path
             d="m 0,0 h -0.812 v 1.485 h -0.026 c -0.279,-1.079 -1.129,-1.638 -2.183,-1.638 -2.831,0 -3.047,2.819 -3.047,5.053 0,2.222 0.394,4.887 3.148,4.887 1.816,0 2.856,-1.18 2.831,-2.957 h -1.066 c -0.013,1.167 -0.508,1.98 -1.714,2.006 -2.082,0.037 -2.107,-2.349 -2.107,-3.974 0,-1.447 -0.076,-3.973 1.802,-4.062 1.955,-0.089 2.133,1.701 2.12,3.211 h -2.12 V 4.963 H 0 Z"
             style="fill:#262262;fill-opacity:1;fill-rule:nonzero;stroke:none"
             id="path9181"
             inkscape:connector-curvature="0" />
        </g>
        <path
           d="m 367.136,68.492 h 1.054 v -9.521 h -1.054 z"
           style="fill:#262262;fill-opacity:1;fill-rule:nonzero;stroke:none"
           id="path9183"
           inkscape:connector-curvature="0" />
        <g
           id="g9185"
           transform="translate(371.7183,58.9709)">
          <path
             d="M 0,0 V 9.521 H 1.054 V 0.952 H 4.938 V 0 Z"
             style="fill:#262262;fill-opacity:1;fill-rule:nonzero;stroke:none"
             id="path9187"
             inkscape:connector-curvature="0" />
        </g>
        <g
           id="g9189"
           transform="translate(379.1547,58.9709)">
          <path
             d="M 0,0 V 9.521 H 1.054 V 0.952 H 4.938 V 0 Z"
             style="fill:#262262;fill-opacity:1;fill-rule:nonzero;stroke:none"
             id="path9191"
             inkscape:connector-curvature="0" />
        </g>
        <g
           id="g9193"
           transform="translate(386.7587,58.9709)">
          <path
             d="M 0,0 V 9.521 H 4.76 V 8.569 H 1.054 V 5.421 H 4.532 V 4.469 H 1.054 V 0.952 H 4.786 V 0 Z"
             style="fill:#262262;fill-opacity:1;fill-rule:nonzero;stroke:none"
             id="path9195"
             inkscape:connector-curvature="0" />
        </g>
        <g
           id="g9197"
           transform="translate(394.0821,68.4918)">
          <path
             d="M 0,0 H 5.979 V -0.952 H 3.517 V -9.521 H 2.463 v 8.569 H 0 Z"
             style="fill:#262262;fill-opacity:1;fill-rule:nonzero;stroke:none"
             id="path9199"
             inkscape:connector-curvature="0" />
        </g>
        <g
           id="g9201"
           transform="translate(402.098,68.4918)">
          <path
             d="M 0,0 H 5.979 V -0.952 H 3.517 V -9.521 H 2.463 v 8.569 H 0 Z"
             style="fill:#262262;fill-opacity:1;fill-rule:nonzero;stroke:none"
             id="path9203"
             inkscape:connector-curvature="0" />
        </g>
        <g
           id="g9205"
           transform="translate(410.9834,58.9709)">
          <path
             d="M 0,0 V 9.521 H 4.76 V 8.569 H 1.054 V 5.421 H 4.532 V 4.469 H 1.054 V 0.952 H 4.786 V 0 Z"
             style="fill:#262262;fill-opacity:1;fill-rule:nonzero;stroke:none"
             id="path9207"
             inkscape:connector-curvature="0" />
        </g>
        <g
           id="g9209"
           transform="translate(360.2902,55.4404)">
          <path
             d="m 0,0 c -0.014,0.649 -0.226,1.203 -0.984,1.203 -1.05,0 -1.064,-1.495 -1.064,-2.216 -0.03,-0.744 -0.044,-2.398 1.064,-2.398 0.722,0 0.875,0.59 0.948,1.188 0.014,0.124 0.022,0.248 0.036,0.371 H 0.605 C 0.59,-1.961 0.59,-2.077 0.576,-2.187 0.539,-2.631 0.518,-2.967 0.255,-3.346 c -0.284,-0.393 -0.663,-0.612 -1.188,-0.612 -1.684,0 -1.742,1.625 -1.742,2.93 0,1.232 0.182,2.777 1.734,2.777 1.036,0 1.575,-0.772 1.546,-1.749 z"
             style="fill:#bcbec0;fill-opacity:1;fill-rule:nonzero;stroke:none"
             id="path9211"
             inkscape:connector-curvature="0" />
        </g>
        <g
           id="g9213"
           transform="translate(363.6295,56.6433)">
          <path
             d="m 0,0 c -0.933,0 -1.166,-0.977 -1.159,-2.194 0.007,-1.582 0.168,-2.42 1.174,-2.42 1.006,0 1.166,0.838 1.173,2.42 C 1.196,-0.977 0.962,0 0,0 m 0.029,0.547 c 1.597,0 1.794,-1.473 1.786,-2.727 -0.007,-1.516 -0.204,-2.981 -1.8,-2.981 -1.597,0 -1.786,1.465 -1.801,2.981 0,1.254 0.19,2.727 1.815,2.727"
             style="fill:#bcbec0;fill-opacity:1;fill-rule:nonzero;stroke:none"
             id="path9215"
             inkscape:connector-curvature="0" />
        </g>
        <g
           id="g9217"
           transform="translate(370.1565,57.0342)">
          <path
             d="M 0,0 H 1.064 V -5.467 H 0.46 v 4.505 c 0,0.233 0.014,0.459 0,0.692 H 0.445 C 0.379,-0.591 0.328,-0.795 0.277,-1.006 l -1.144,-4.461 h -0.722 l -1.144,4.527 c -0.051,0.189 -0.095,0.371 -0.161,0.67 h -0.014 c 0,-0.233 0.014,-0.474 0.014,-0.707 v -4.49 H -3.499 V 0 h 1.072 l 1.071,-4.265 c 0.059,-0.233 0.088,-0.459 0.117,-0.809 h 0.014 c 0.037,0.277 0.074,0.547 0.139,0.817 z"
             style="fill:#bcbec0;fill-opacity:1;fill-rule:nonzero;stroke:none"
             id="path9219"
             inkscape:connector-curvature="0" />
        </g>
        <g
           id="g9221"
           transform="translate(375.9452,57.0808)">
          <path
             d="M 0,0 H 1.064 V -5.467 H 0.459 v 4.505 c 0,0.233 0.015,0.459 0,0.692 H 0.445 C 0.379,-0.591 0.328,-0.795 0.277,-1.006 l -1.145,-4.461 h -0.721 l -1.145,4.526 c -0.051,0.19 -0.094,0.372 -0.16,0.671 h -0.015 c 0,-0.233 0.015,-0.474 0.015,-0.707 v -4.49 H -3.499 V 0 h 1.071 l 1.072,-4.265 c 0.058,-0.233 0.087,-0.459 0.117,-0.809 h 0.014 c 0.037,0.277 0.073,0.547 0.139,0.817 z"
             style="fill:#bcbec0;fill-opacity:1;fill-rule:nonzero;stroke:none"
             id="path9223"
             inkscape:connector-curvature="0" />
        </g>
        <g
           id="g9225"
           transform="translate(377.9715,57.0808)">
          <path
             d="m 0,0 h 0.605 v -3.929 c -0.007,-0.43 0.066,-1.123 1.035,-1.123 0.97,0 1.043,0.693 1.035,1.123 V 0 h 0.606 v -4.148 c 0,-0.977 -0.649,-1.45 -1.641,-1.45 -0.991,0 -1.64,0.473 -1.64,1.45 z"
             style="fill:#bcbec0;fill-opacity:1;fill-rule:nonzero;stroke:none"
             id="path9227"
             inkscape:connector-curvature="0" />
        </g>
        <g
           id="g9229"
           transform="translate(385.4772,57.0808)">
          <path
             d="m 0,0 h 0.605 v -5.467 h -0.991 l -1.531,4.373 c -0.088,0.248 -0.153,0.496 -0.204,0.824 h -0.015 c 0.007,-0.277 0.015,-0.561 0.015,-0.838 V -5.467 H -2.726 V 0 h 0.984 L -0.19,-4.476 C -0.124,-4.644 -0.073,-4.819 0,-5.074 H 0.015 C 0.007,-4.877 0,-4.666 0,-4.462 Z"
             style="fill:#bcbec0;fill-opacity:1;fill-rule:nonzero;stroke:none"
             id="path9231"
             inkscape:connector-curvature="0" />
        </g>
        <path
           d="m 387.722,57.081 h 0.605 v -5.467 h -0.605 z"
           style="fill:#bcbec0;fill-opacity:1;fill-rule:nonzero;stroke:none"
           id="path9233"
           inkscape:connector-curvature="0" />
        <g
           id="g9235"
           transform="translate(392.3994,55.4404)">
          <path
             d="m 0,0 c -0.015,0.649 -0.226,1.203 -0.984,1.203 -1.05,0 -1.065,-1.495 -1.065,-2.216 -0.029,-0.744 -0.043,-2.398 1.065,-2.398 0.722,0 0.874,0.59 0.948,1.188 0.014,0.124 0.021,0.248 0.036,0.371 H 0.605 C 0.59,-1.961 0.59,-2.077 0.576,-2.187 0.539,-2.631 0.518,-2.967 0.255,-3.346 c -0.284,-0.393 -0.664,-0.612 -1.188,-0.612 -1.684,0 -1.742,1.625 -1.742,2.93 0,1.232 0.182,2.777 1.734,2.777 1.036,0 1.575,-0.772 1.546,-1.749 z"
             style="fill:#bcbec0;fill-opacity:1;fill-rule:nonzero;stroke:none"
             id="path9237"
             inkscape:connector-curvature="0" />
        </g>
        <g
           id="g9239"
           transform="translate(395.8196,56.6433)">
          <path
             d="M 0,0 H -0.015 L -0.736,-2.909 H 0.707 Z M -0.394,0.437 H 0.408 L 1.946,-5.03 H 1.276 L 0.845,-3.455 H -0.882 L -1.283,-5.03 h -0.671 z"
             style="fill:#bcbec0;fill-opacity:1;fill-rule:nonzero;stroke:none"
             id="path9241"
             inkscape:connector-curvature="0" />
        </g>
        <g
           id="g9243"
           transform="translate(397.5702,57.0808)">
          <path
             d="M 0,0 H 3.433 V -0.547 H 2.019 v -4.92 H 1.414 v 4.92 H 0 Z"
             style="fill:#bcbec0;fill-opacity:1;fill-rule:nonzero;stroke:none"
             id="path9245"
             inkscape:connector-curvature="0" />
        </g>
        <path
           d="m 401.867,57.081 h 0.605 v -5.467 h -0.605 z"
           style="fill:#bcbec0;fill-opacity:1;fill-rule:nonzero;stroke:none"
           id="path9247"
           inkscape:connector-curvature="0" />
        <g
           id="g9249"
           transform="translate(405.4182,56.6433)">
          <path
             d="m 0,0 c -0.933,0 -1.167,-0.977 -1.159,-2.194 0.007,-1.582 0.167,-2.42 1.173,-2.42 1.006,0 1.167,0.838 1.174,2.42 C 1.195,-0.977 0.962,0 0,0 m 0.029,0.547 c 1.596,0 1.794,-1.473 1.786,-2.727 -0.007,-1.516 -0.204,-2.981 -1.801,-2.981 -1.596,0 -1.786,1.465 -1.8,2.981 0,1.254 0.189,2.727 1.815,2.727"
             style="fill:#bcbec0;fill-opacity:1;fill-rule:nonzero;stroke:none"
             id="path9251"
             inkscape:connector-curvature="0" />
        </g>
      </g>
      <g
         transform="matrix(0.35277777,0,0,-0.35277777,-15.232402,218.77187)"
         id="g9255"
         clip-path="url(#clipPath9259)">
        <g
           id="g9261"
           transform="translate(410.9811,57.0808)">
          <path
             d="m 0,0 h 0.605 v -5.467 h -0.991 l -1.531,4.373 c -0.087,0.248 -0.153,0.496 -0.204,0.824 h -0.015 c 0.008,-0.277 0.015,-0.561 0.015,-0.838 V -5.467 H -2.726 V 0 h 0.984 l 1.553,-4.476 C -0.124,-4.644 -0.073,-4.819 0,-5.074 H 0.015 C 0.008,-4.877 0,-4.666 0,-4.462 Z"
             style="fill:#bcbec0;fill-opacity:1;fill-rule:nonzero;stroke:none"
             id="path9263"
             inkscape:connector-curvature="0" />
        </g>
        <g
           id="g9265"
           transform="translate(415.1748,55.6445)">
          <path
             d="m 0,0 c 0.044,0.569 -0.262,0.999 -0.868,0.999 -0.882,0 -0.976,-0.554 -0.976,-0.977 0,-0.379 0.167,-0.612 0.517,-0.744 0.292,-0.109 0.576,-0.218 0.867,-0.328 1.036,-0.386 1.225,-0.75 1.225,-1.472 0,-1.035 -0.648,-1.64 -1.698,-1.64 -0.54,0 -1.181,0.153 -1.495,0.867 -0.116,0.27 -0.109,0.707 -0.116,0.999 h 0.605 c -0.029,-0.809 0.124,-1.319 1.035,-1.319 0.612,0 1.042,0.313 1.042,0.954 0,0.831 -0.335,0.839 -0.889,1.05 -0.299,0.117 -0.78,0.27 -1.072,0.423 -0.517,0.262 -0.648,0.7 -0.648,1.239 0,0.904 0.634,1.494 1.523,1.494 0.999,0 1.611,-0.517 1.553,-1.545 z"
             style="fill:#bcbec0;fill-opacity:1;fill-rule:nonzero;stroke:none"
             id="path9267"
             inkscape:connector-curvature="0" />
        </g>
      </g>
      <g
         transform="matrix(0.35277777,0,0,-0.35277777,-15.232402,218.77187)"
         id="g9271"
         clip-path="url(#clipPath9275)">
        <g
           id="g9277"
           transform="translate(355.729,43.1404)">
          <path
             d="m 0,0 c 0.073,0.952 -0.44,1.672 -1.453,1.672 -1.477,0 -1.636,-0.927 -1.636,-1.635 0,-0.635 0.281,-1.026 0.867,-1.246 0.488,-0.183 0.965,-0.366 1.453,-0.549 1.734,-0.647 2.051,-1.258 2.051,-2.466 0,-1.734 -1.087,-2.747 -2.845,-2.747 -0.903,0 -1.977,0.256 -2.502,1.452 -0.196,0.452 -0.184,1.185 -0.196,1.673 h 1.013 c -0.048,-1.355 0.208,-2.209 1.734,-2.209 1.026,0 1.746,0.524 1.746,1.599 0,1.391 -0.562,1.404 -1.489,1.758 -0.501,0.195 -1.307,0.451 -1.795,0.708 -0.867,0.439 -1.087,1.172 -1.087,2.075 0,1.514 1.062,2.503 2.552,2.503 1.672,0 2.698,-0.867 2.6,-2.588 z"
             style="fill:#bcbec0;fill-opacity:1;fill-rule:nonzero;stroke:none"
             id="path9279"
             inkscape:connector-curvature="0" />
        </g>
        <g
           id="g9281"
           transform="translate(364.0442,36.3155)">
          <path
             d="m 0,0 h -0.781 v 1.428 h -0.025 c -0.268,-1.037 -1.086,-1.574 -2.1,-1.574 -2.722,0 -2.93,2.71 -2.93,4.859 0,2.136 0.379,4.7 3.028,4.7 1.746,0 2.747,-1.135 2.722,-2.845 h -1.025 c -0.012,1.124 -0.488,1.905 -1.648,1.929 -2.002,0.037 -2.027,-2.258 -2.027,-3.821 0,-1.392 -0.073,-3.821 1.734,-3.907 1.88,-0.085 2.051,1.636 2.038,3.089 H -3.052 V 4.774 H 0 Z"
             style="fill:#bcbec0;fill-opacity:1;fill-rule:nonzero;stroke:none"
             id="path9283"
             inkscape:connector-curvature="0" />
        </g>
        <g
           id="g9285"
           transform="translate(369.8893,42.7985)">
          <path
             d="m 0,0 c -0.025,1.087 -0.379,2.014 -1.648,2.014 -1.758,0 -1.783,-2.502 -1.783,-3.711 -0.049,-1.245 -0.073,-4.017 1.783,-4.017 1.209,0 1.465,0.989 1.587,1.99 0.024,0.208 0.036,0.415 0.061,0.623 H 1.013 C 0.989,-3.284 0.989,-3.48 0.965,-3.662 0.903,-4.408 0.867,-4.969 0.427,-5.604 -0.049,-6.263 -0.684,-6.63 -1.563,-6.63 c -2.82,0 -2.918,2.723 -2.918,4.908 0,2.064 0.306,4.652 2.906,4.652 1.734,0 2.637,-1.294 2.588,-2.93 z"
             style="fill:#bcbec0;fill-opacity:1;fill-rule:nonzero;stroke:none"
             id="path9287"
             inkscape:connector-curvature="0" />
        </g>
        <g
           id="g9289"
           transform="translate(374.795,36.3889)">
          <path
             d="M 0,0 V 9.157 H 1.013 V 5.335 H 4.517 V 9.157 H 5.53 V 0 H 4.517 V 4.419 H 1.013 V 0 Z"
             style="fill:#262262;fill-opacity:1;fill-rule:nonzero;stroke:none"
             id="path9291"
             inkscape:connector-curvature="0" />
        </g>
        <g
           id="g9293"
           transform="translate(384.3911,44.8128)">
          <path
             d="m 0,0 c -1.563,0 -1.953,-1.636 -1.941,-3.675 0.012,-2.649 0.281,-4.053 1.966,-4.053 1.684,0 1.953,1.404 1.965,4.053 C 2.002,-1.636 1.612,0 0,0 m 0.049,0.916 c 2.673,0 3.003,-2.467 2.991,-4.567 -0.012,-2.539 -0.342,-4.993 -3.015,-4.993 -2.674,0 -2.992,2.454 -3.016,4.993 0,2.1 0.317,4.567 3.04,4.567"
             style="fill:#262262;fill-opacity:1;fill-rule:nonzero;stroke:none"
             id="path9295"
             inkscape:connector-curvature="0" />
        </g>
        <g
           id="g9297"
           transform="translate(389.2478,41.3331)">
          <path
             d="M 0,0 H 1.599 C 2.076,0.012 3.394,0.086 3.37,1.685 3.345,3.26 2.112,3.297 1.428,3.297 H 0 Z M 0,-4.944 H -1.013 V 4.212 H 1.343 C 3.26,4.212 4.481,3.712 4.419,1.6 4.383,0.525 3.724,-0.244 2.662,-0.39 v -0.025 c 1.184,-0.11 1.477,-0.488 1.623,-1.709 0.037,-0.684 0.098,-1.355 0.196,-2.039 0.036,-0.171 0.11,-0.574 0.353,-0.574 V -4.944 H 3.651 c -0.22,0.586 -0.318,1.721 -0.318,2.331 0,0.916 -0.366,1.698 -1.563,1.698 H 0 Z"
             style="fill:#262262;fill-opacity:1;fill-rule:nonzero;stroke:none"
             id="path9299"
             inkscape:connector-curvature="0" />
        </g>
        <path
           d="m 394.93,45.545 h 1.013 v -9.157 h -1.013 z"
           style="fill:#262262;fill-opacity:1;fill-rule:nonzero;stroke:none"
           id="path9301"
           inkscape:connector-curvature="0" />
        <g
           id="g9303"
           transform="translate(397.163,36.3889)">
          <path
             d="M 0,0 V 0.879 L 4.322,8.241 H 0.11 V 9.157 H 5.372 V 8.278 L 1.05,0.916 H 5.433 V 0 Z"
             style="fill:#262262;fill-opacity:1;fill-rule:nonzero;stroke:none"
             id="path9305"
             inkscape:connector-curvature="0" />
        </g>
        <g
           id="g9307"
           transform="translate(405.8602,44.8128)">
          <path
             d="m 0,0 c -1.563,0 -1.954,-1.636 -1.941,-3.675 0.012,-2.649 0.281,-4.053 1.965,-4.053 1.685,0 1.954,1.404 1.966,4.053 C 2.002,-1.636 1.611,0 0,0 m 0.049,0.916 c 2.673,0 3.003,-2.467 2.991,-4.567 -0.012,-2.539 -0.342,-4.993 -3.016,-4.993 -2.673,0 -2.991,2.454 -3.015,4.993 0,2.1 0.317,4.567 3.04,4.567"
             style="fill:#262262;fill-opacity:1;fill-rule:nonzero;stroke:none"
             id="path9309"
             inkscape:connector-curvature="0" />
        </g>
        <g
           id="g9311"
           transform="translate(414.5717,45.5455)">
          <path
             d="m 0,0 h 1.013 v -9.157 h -1.66 l -2.564,7.326 c -0.146,0.415 -0.256,0.83 -0.342,1.379 h -0.024 c 0.012,-0.464 0.024,-0.94 0.024,-1.404 V -9.157 H -4.566 V 0 h 1.648 l 2.601,-7.496 C -0.207,-7.777 -0.122,-8.07 0,-8.497 H 0.024 C 0.012,-8.168 0,-7.814 0,-7.472 Z"
             style="fill:#262262;fill-opacity:1;fill-rule:nonzero;stroke:none"
             id="path9313"
             inkscape:connector-curvature="0" />
        </g>
      </g>
      <g
         transform="matrix(0.35277777,0,0,-0.35277777,-15.232402,218.77187)"
         id="g9317"
         clip-path="url(#clipPath9321)">
        <g
           id="g9323"
           transform="translate(357.5813,48.5558)">
          <path
             d="M 0,0 H 58.188"
             style="fill:none;stroke:#d8d8d7;stroke-width:0.27599999;stroke-linecap:butt;stroke-linejoin:miter;stroke-miterlimit:10;stroke-dasharray:none;stroke-opacity:1"
             id="path9325"
             inkscape:connector-curvature="0" />
        </g>
      </g>
    </g>
  </g>
</svg>
